<?xml version="1.0" encoding="UTF-8"?>
<svg version="1.1" xmlns="http://www.w3.org/2000/svg" width="558" height="320">
<path d="M0 0 C184.14 0 368.28 0 558 0 C558 105.6 558 211.2 558 320 C373.86 320 189.72 320 0 320 C0 214.4 0 108.8 0 0 Z " fill="#FDFDFD" transform="translate(0,0)"/>
<path d="M0 0 C184.14 0 368.28 0 558 0 C558 105.6 558 211.2 558 320 C373.86 320 189.72 320 0 320 C0 214.4 0 108.8 0 0 Z M85 26 C80.09179918 32.2201108 78.34480018 40.03651787 76.4375 47.5625 C74.56552046 54.87234123 72.54840903 61.33443847 69 68 C68.2216223 71.31583451 68.2216223 71.31583451 68 74 C67.34 74 66.68 74 66 74 C65.32739649 75.76858691 64.66211605 77.53996016 64 79.3125 C63.62875 80.29863281 63.2575 81.28476563 62.875 82.30078125 C61.84581498 85.00271656 61.84581498 85.00271656 62 88 C61.34 88 60.68 88 60 88 C59.75507812 88.84304687 59.51015625 89.68609375 59.2578125 90.5546875 C58.09078729 93.97527864 56.93013131 96.9385613 55 100 C52.45235846 101.03566217 50.3050895 101.1778327 47.57421875 101.40234375 C42.5508839 102.56861117 39.75783967 106.88392429 37 111 C35.46852459 114.31361584 35.46852459 114.31361584 35 117 C34.34 117 33.68 117 33 117 C32.15787744 118.91282125 31.32661136 120.83042473 30.5 122.75 C30.0359375 123.81734375 29.571875 124.8846875 29.09375 125.984375 C27.77269283 129.09207716 27.77269283 129.09207716 28 133 C27.34 133 26.68 133 26 133 C25.32210976 135.35143176 24.65759253 137.70538624 24 140.0625 C23.80921875 140.71927734 23.6184375 141.37605469 23.421875 142.05273438 C22.20403571 146.4674018 21.80772606 150.37941677 22 155 C21.34 155 20.68 155 20 155 C16.58637859 177.93905165 12.47337087 206.42011262 20 229 C20.66 229 21.32 229 22 229 C22.103125 230.299375 22.20625 231.59875 22.3125 232.9375 C22.848308 237.90160353 24.24930225 242.34248334 26 247 C26.66 247 27.32 247 28 247 C28.268125 247.886875 28.53625 248.77375 28.8125 249.6875 C29.9250635 252.7909666 31.10195778 255.31110685 33 258 C33.66 258 34.32 258 35 258 C35.226875 258.556875 35.45375 259.11375 35.6875 259.6875 C38.34201248 264.36449818 42.22986781 267.6149339 47 270 C48.175625 270.309375 49.35125 270.61875 50.5625 270.9375 C54.30552566 272.0944352 55.34292503 273.25989144 58 276 C63.54347161 278.82933032 68.735273 279.74989761 74.875 280.5 C80.7482584 281.22410035 86.10619234 282.22893869 91.68701172 284.21533203 C95.92553975 285.65322828 100.27451242 286.65002782 104.625 287.6875 C105.52734375 287.91244141 106.4296875 288.13738281 107.359375 288.36914062 C112.37580506 289.57206008 116.84238161 290.26141354 122 290 C122 290.66 122 291.32 122 292 C122.66008057 292.11069824 123.32016113 292.22139648 124.00024414 292.33544922 C127.02170137 292.8445437 130.04209149 293.3597216 133.0625 293.875 C134.10083984 294.04902344 135.13917969 294.22304688 136.20898438 294.40234375 C137.73168945 294.66337891 137.73168945 294.66337891 139.28515625 294.9296875 C140.21207275 295.08679199 141.13898926 295.24389648 142.09399414 295.40576172 C145 296 145 296 148.25561523 297.00439453 C152.72085683 298.19167074 157.03195615 298.62161781 161.625 299 C162.53072754 299.08121094 163.43645508 299.16242188 164.36962891 299.24609375 C167.24589453 299.50383253 170.12279385 299.75299639 173 300 C176.79240167 300.32557171 180.58386113 300.66007223 184.375 301 C185.23561035 301.07089844 186.0962207 301.14179688 186.98291016 301.21484375 C191.89334486 301.65605719 196.24892923 302.62810502 201 304 C203.45975718 304.24973774 205.92831554 304.42117489 208.3984375 304.52734375 C209.09618286 304.56079391 209.79392822 304.59424408 210.51281738 304.62870789 C212.01390581 304.70057839 213.51515823 304.76908892 215.01654053 304.83453369 C226.11090838 305.31889483 237.13070214 305.94269092 248.16699219 307.21069336 C291.16533758 312.01502521 336.01899568 309.91174823 379 306 C380.14364517 305.90137161 380.14364517 305.90137161 381.31039429 305.80075073 C384.83621961 305.46107522 387.98191603 305.0053153 391.39477539 304.00219727 C396.13856031 302.68349766 400.78660304 302.33982854 405.68359375 301.96484375 C406.69792984 301.88126114 407.71226593 301.79767853 408.75733948 301.71156311 C411.98356153 301.44691275 415.21044844 301.19181683 418.4375 300.9375 C421.6608031 300.67775459 424.88393269 300.41600653 428.10694885 300.15272522 C430.10686151 299.98996966 432.10696623 299.82955131 434.10728455 299.67185974 C439.42808482 299.24544255 444.70884318 298.70613529 450 298 C450 297.34 450 296.68 450 296 C451.13050781 295.95101563 452.26101563 295.90203125 453.42578125 295.8515625 C463.68837782 295.38513003 473.93938676 294.78001536 484.1875 294.0625 C485.32034424 293.98789551 486.45318848 293.91329102 487.62036133 293.83642578 C502.11734786 292.81126353 502.11734786 292.81126353 514 285 C514.31899515 282.63044614 514.31899515 282.63044614 514.25 280 C514.25515625 279.113125 514.2603125 278.22625 514.265625 277.3125 C514.22052862 274.80599761 514.22052862 274.80599761 512 273 C512.2389465 268.93790947 514.0422396 265.75212726 515.96484375 262.2578125 C519.299304 254.98491429 519.5877983 247.57995552 520.12304688 239.70898438 C520.52824353 234.52173708 521.27944501 229.69915206 522.54296875 224.6484375 C524.52031815 215.83091942 524.45111997 207.06996237 524.39111328 198.06665039 C524.37492904 195.17482044 524.39109434 192.28436772 524.41015625 189.39257812 C524.4081752 187.52603863 524.40433439 185.65949998 524.3984375 183.79296875 C524.40754654 182.51766548 524.40754654 182.51766548 524.4168396 181.21659851 C524.35720428 176.07681552 523.55322263 171.84117795 521.74256897 167.02462769 C520.53786131 163.73997052 519.84148709 160.34279835 519.0625 156.9375 C517.85794815 151.89274577 516.50916378 147.2830252 513.94921875 142.75 C512.26520433 139.64531498 511.18592593 136.3205926 510 133 C509.34 133 508.68 133 508 133 C507.835 132.29875 507.67 131.5975 507.5 130.875 C505.35108421 126.75624474 502.05464628 124.22623032 498 122 C496.68 122 495.36 122 494 122 C494.00888245 121.12383026 494.01776489 120.24766052 494.0269165 119.34494019 C494.10715922 111.07639033 494.16801356 102.80797178 494.20724869 94.53912163 C494.22809828 90.28828151 494.25636734 86.0377639 494.30175781 81.78710938 C494.34531017 77.68276945 494.36915688 73.57873917 494.37950897 69.47418594 C494.38688357 67.91050468 494.40128466 66.34683983 494.42292023 64.78329086 C494.45208062 62.58806874 494.45595097 60.39411599 494.45410156 58.19873047 C494.46298401 56.95074677 494.47186646 55.70276306 494.48101807 54.41696167 C493.9080079 50.3465246 492.53839778 48.19257713 490 45 C485.99621145 42.24888193 481.68736509 42.45690066 477 43 C473.99879395 44.0636649 473.99879395 44.0636649 472 46 C471.63837971 47.32594105 471.30271961 48.65938457 471 50 C470.4225 50.26039062 469.845 50.52078125 469.25 50.7890625 C466.21282823 52.42365147 464.67842081 54.60250783 462.5625 57.3125 C458.98030121 61.87902472 455.1521001 65.92282795 450.98046875 69.94921875 C450.09294922 70.80966797 450.09294922 70.80966797 449.1875 71.6875 C448.58292969 72.26886719 447.97835938 72.85023437 447.35546875 73.44921875 C445.78063276 74.90769892 445.78063276 74.90769892 446 77 C445.4225 77.226875 444.845 77.45375 444.25 77.6875 C441.40408619 79.34761639 440.00158079 81.39187957 438 84 C435.60492125 86.46350957 433.14826924 88.85647338 430.6796875 91.24609375 C429.85726563 92.05175781 429.03484375 92.85742188 428.1875 93.6875 C427.39730469 94.45449219 426.60710937 95.22148438 425.79296875 96.01171875 C423.77677004 97.8013283 423.77677004 97.8013283 424 100 C422.60335892 99.88437394 421.20768801 99.757008 419.8125 99.625 C419.03519531 99.55539063 418.25789063 99.48578125 417.45703125 99.4140625 C414.74857212 98.95762901 412.54420368 98.02826657 410 97 C407.71967885 96.41239951 405.42642949 95.87355912 403.125 95.375 C401.95195312 95.11460938 400.77890625 94.85421875 399.5703125 94.5859375 C395.9788463 93.99652839 392.63234067 93.89781139 389 94 C389 93.34 389 92.68 389 92 C388.1843457 91.86424561 387.36869141 91.72849121 386.52832031 91.58862305 C383.44123638 91.0724343 380.35492588 90.55188158 377.26904297 90.02856445 C375.30100458 89.69611589 373.33215159 89.36850109 371.36328125 89.04101562 C365.53765179 88.0503629 359.8019638 87.00479083 354.09375 85.46875 C347.29034324 83.69824275 340.40337814 82.86656351 333.43505859 82.06469727 C331.23801407 81.8111166 329.04289414 81.54412055 326.84765625 81.27539062 C320.19023904 80.48287885 313.70569595 79.90854181 307 80 C307 79.34 307 78.68 307 78 C302.64640395 77.51555819 298.29203023 77.03846543 293.9375 76.5625 C292.12282227 76.36043945 292.12282227 76.36043945 290.27148438 76.15429688 C289.05654297 76.02216797 287.84160156 75.89003906 286.58984375 75.75390625 C285.49534912 75.63345947 284.40085449 75.5130127 283.27319336 75.38891602 C270.95875208 74.20617529 258.71894249 73.82652948 246.359375 73.796875 C245.54733864 73.79404762 244.73530228 73.79122025 243.89865875 73.78830719 C239.60382278 73.77345625 235.30901919 73.76413727 231.01416016 73.75976562 C226.64329451 73.75429 222.27274167 73.73023982 217.90197372 73.70179367 C214.48017573 73.68293409 211.05844982 73.67794957 207.63660431 73.67642975 C206.02787816 73.67345687 204.41915153 73.66561756 202.81047821 73.65224457 C189.67377734 73.55078891 176.76295999 74.70265913 164 78 C164 78.66 164 79.32 164 80 C163.34773437 80.10957031 162.69546875 80.21914062 162.0234375 80.33203125 C155.88093936 81.44637826 150.72777299 82.73984524 145.8125 86.8125 C141.18645573 88.76571869 136.75087824 87.15651852 132 86 C131.773125 84.7625 131.54625 83.525 131.3125 82.25 C129.35881809 73.48594805 125.32898645 65.38315119 121.24609375 57.43359375 C120.40478269 55.79053172 119.5848669 54.13636296 118.78515625 52.47265625 C115.96432125 46.62370444 112.74932286 41.29776711 109 36 C107.96552734 34.52853516 107.96552734 34.52853516 106.91015625 33.02734375 C103.6163427 27.79460517 103.6163427 27.79460517 99 24 C97.37834248 23.87851695 95.75115673 23.82456348 94.125 23.8125 C93.26132813 23.79832031 92.39765625 23.78414062 91.5078125 23.76953125 C88.76150976 24.02191733 87.34052088 24.56662013 85 26 Z " fill="#FDFDFD" transform="translate(0,0)"/>
<path d="M0 0 C5.16730846 3.60509892 8.4921903 9.80978757 12 15 C12.70125 15.99 13.4025 16.98 14.125 18 C16.22562956 21.3610073 17.97751429 24.80752163 19.71484375 28.3671875 C20.94494392 30.88721034 22.22035039 33.37988383 23.5 35.875 C27.72076462 44.35647338 31.28646206 52.65342942 33 62 C39.57985339 64.06171158 39.57985339 64.06171158 46.16015625 63.125 C47.44430971 62.23901322 48.70872872 61.32382291 49.953125 60.3828125 C54.28457909 57.45660115 59.80161969 56 65 56 C65 55.34 65 54.68 65 54 C67.14451505 53.51496744 69.29069535 53.03729595 71.4375 52.5625 C72.63246094 52.29566406 73.82742187 52.02882812 75.05859375 51.75390625 C84.81988991 49.79603729 94.57980673 49.82091102 104.4921875 49.796875 C105.2897559 49.79404762 106.0873243 49.79122025 106.90906143 49.78830719 C111.1574765 49.77334685 115.4058581 49.76410619 119.65429688 49.75976562 C123.0883279 49.75544216 126.52209896 49.74178945 129.95605469 49.71875 C156.13807055 49.54655594 182.0185015 50.54361125 208 54 C208 54.66 208 55.32 208 56 C208.80695313 56.02578125 209.61390625 56.0515625 210.4453125 56.078125 C220.11036792 56.52957133 229.65784022 57.62052485 239.25 58.875 C240.51602051 59.03645508 241.78204102 59.19791016 243.08642578 59.36425781 C249.88219974 60.27769213 256.41758697 61.51497508 263.04394531 63.26855469 C268.22434525 64.55039134 273.48246811 65.35184834 278.75 66.1875 C279.84054687 66.36474609 280.93109375 66.54199219 282.0546875 66.72460938 C284.70242687 67.15428638 287.35081325 67.57935645 290 68 C290 68.66 290 69.32 290 70 C290.96550781 69.96132812 291.93101562 69.92265625 292.92578125 69.8828125 C297.49764564 69.88511397 301.75176689 70.84377433 306.1875 71.875 C306.98091797 72.04902344 307.77433594 72.22304687 308.59179688 72.40234375 C314.49929364 73.74157475 314.49929364 73.74157475 317.05200195 75.05908203 C319.73719541 76.35607859 322.06223085 76.13353496 325 76 C325.24363281 75.42765625 325.48726563 74.8553125 325.73828125 74.265625 C327.22517298 71.59566462 328.98083908 69.86170993 331.1875 67.75 C334.82906983 64.20795861 338.17869319 60.55937499 341.39453125 56.62890625 C343 55 343 55 345.07421875 54.02734375 C347.52867862 52.71796658 347.87219782 51.49957789 349 49 C352.66605759 44.3550958 356.82123189 40.17876811 361 36 C363.34921997 33.34739037 365.68810786 30.68680019 368.01171875 28.01171875 C368.99591797 27.01591797 368.99591797 27.01591797 370 26 C370.66 26 371.32 26 372 26 C372.37125 24.824375 372.37125 24.824375 372.75 23.625 C374.21237224 20.5540183 374.91766127 20.20660947 378 19 C382.71027588 18.26348414 386.17015542 18.57753367 390.4375 20.75 C393.88866071 23.78028745 394.89138839 25.56554402 395.24050903 30.17645264 C395.23606781 31.42887756 395.23162659 32.68130249 395.22705078 33.97167969 C395.22734283 34.6647673 395.22763489 35.35785492 395.22793579 36.07194519 C395.22654608 38.35538392 395.21100206 40.6384935 395.1953125 42.921875 C395.19158109 44.50799379 395.18873472 46.09411489 395.18673706 47.68023682 C395.17911068 51.84940993 395.15947078 56.01844311 395.1373291 60.18756104 C395.11684921 64.44403185 395.10773076 68.70052534 395.09765625 72.95703125 C395.07622391 81.30475163 395.04210002 89.65235839 395 98 C396.38445312 98.17789063 396.38445312 98.17789063 397.796875 98.359375 C402.02803129 99.20560626 403.97444508 100.97444508 407 104 C408.375 106.8125 408.375 106.8125 409 109 C409.66 109 410.32 109 411 109 C412.756979 113.36686043 414.50579439 117.73677486 416.24291992 122.11157227 C416.75805461 123.39650192 417.2847354 124.67684948 417.8215332 125.95288086 C419.14965728 129.23344016 420.1781488 132.5319478 421.03125 135.96484375 C421.21220215 136.68744385 421.3931543 137.41004395 421.57958984 138.15454102 C421.93860768 139.61616467 422.29322054 141.07887851 422.64306641 142.54272461 C423.53246703 146.37082312 423.53246703 146.37082312 425 150 C425.12411063 153.04409516 425.1885239 156.06425049 425.203125 159.109375 C425.20882507 160.02777161 425.21452515 160.94616821 425.22039795 161.89239502 C425.22986309 163.8460576 425.23638791 165.79973625 425.24023438 167.75341797 C425.24982594 170.69658929 425.28078553 173.6390274 425.3125 176.58203125 C425.36529507 186.06514427 425.04847379 194.72962128 422.72167969 203.95556641 C421.38795242 209.58194632 421.1865482 215.31712946 420.828125 221.07226562 C420.26456846 228.64234727 418.79184432 235.25889533 414.75 241.75 C412.73230781 244.80889187 412.73230781 244.80889187 413.1875 247.875 C413.81606274 249.95204276 413.81606274 249.95204276 415 251 C415.49806806 255.48261256 415.93017314 259.60474029 413.375 263.4375 C401.66598107 271.14080193 386.5338397 270.23924046 372.9375 271.125 C372.25374298 271.16956329 371.56998596 271.21412659 370.86550903 271.26004028 C364.23252837 271.68602246 357.64892566 272.04972544 351 272 C351 272.66 351 273.32 351 274 C349.79166504 274.11069824 348.58333008 274.22139648 347.33837891 274.33544922 C342.76448804 274.75494011 338.19081055 275.1767212 333.6171875 275.59912109 C331.65467802 275.78006396 329.69211458 275.96042273 327.72949219 276.14013672 C317.69666692 277.05921334 307.66626746 277.99855057 297.6484375 279.0703125 C296.50418808 279.18848831 296.50418808 279.18848831 295.33682251 279.30905151 C291.87183398 279.42099083 291.87183398 279.42099083 289 281 C287.34411292 281.20613253 285.68022838 281.34844689 284.015625 281.46484375 C282.38947266 281.58182617 282.38947266 281.58182617 280.73046875 281.70117188 C279.00763672 281.8181543 279.00763672 281.8181543 277.25 281.9375 C276.20972656 282.01162109 275.16945313 282.08574219 274.09765625 282.16210938 C271.66147116 282.33452063 269.224895 282.50143936 266.78808594 282.66479492 C263.07555892 282.91758185 259.36666137 283.20664313 255.65722656 283.5012207 C237.83649417 284.87789178 220.12061056 285.35915379 202.25 285.3125 C200.88201918 285.31147157 199.51403819 285.31063971 198.14605713 285.30999756 C180.49150025 285.29235199 163.07983595 284.80558323 145.53125 282.79296875 C134.96896647 281.58817264 124.34609992 281.19761648 113.72998047 280.73486328 C112.28613074 280.6657333 110.84228299 280.59656222 109.3984375 280.52734375 C108.13692871 280.47312256 106.87541992 280.41890137 105.57568359 280.36303711 C102 280 102 280 98.61499023 279.02514648 C94.31250591 277.80503899 90.20544584 277.41793618 85.76171875 277.0703125 C83.95245036 276.91303165 82.14320636 276.75547007 80.33398438 276.59765625 C77.52890361 276.36092211 74.72360679 276.12792164 71.91772461 275.90087891 C60.67142462 274.9795916 49.84139475 273.60620038 38.87084961 270.92236328 C33.62170799 269.67157444 28.33459004 268.79495852 23 268 C23 267.34 23 266.68 23 266 C22.05898437 266.04769531 21.11796875 266.09539062 20.1484375 266.14453125 C15.13735451 266.14075215 10.46245726 264.89340899 5.625 263.6875 C4.73039062 263.47416016 3.83578125 263.26082031 2.9140625 263.04101562 C-1.3184817 262.01056337 -5.43914053 260.88159388 -9.54296875 259.41796875 C-14.27916124 257.78734736 -18.98089186 257.20801829 -23.9375 256.625 C-31.19737565 255.65648149 -38.01264949 254.56709527 -44 250 C-44.66 249.01 -45.32 248.02 -46 247 C-47.98554726 246.47920072 -49.97341379 245.9639832 -51.9765625 245.515625 C-57.63521499 244.07365178 -60.64629632 240.50354495 -64 236 C-64 235.34 -64 234.68 -64 234 C-64.66 234 -65.32 234 -66 234 C-66.83848804 232.54462432 -67.67063934 231.08559627 -68.5 229.625 C-69.19609375 228.40683594 -69.19609375 228.40683594 -69.90625 227.1640625 C-71 225 -71 225 -71 223 C-71.66 223 -72.32 223 -73 223 C-73.67548578 220.94037148 -74.34004312 218.87715678 -75 216.8125 C-75.37125 215.66394531 -75.7425 214.51539063 -76.125 213.33203125 C-76.90630553 210.35679188 -77.18363306 208.04716104 -77 205 C-77.66 205 -78.32 205 -79 205 C-79.31799462 203.3760663 -79.62900978 201.75076598 -79.9375 200.125 C-80.11152344 199.22007812 -80.28554687 198.31515625 -80.46484375 197.3828125 C-83.94786383 175.36605782 -82.26295902 152.92662176 -79 131 C-78.34 131 -77.68 131 -77 131 C-77.04125 130.00871094 -77.0825 129.01742187 -77.125 127.99609375 C-76.99082164 123.70657916 -76.18795232 120.15210613 -75 116.0625 C-74.80921875 115.37865234 -74.6184375 114.69480469 -74.421875 113.99023438 C-73.95595063 112.32455474 -73.47911589 110.66193325 -73 109 C-72.34 109 -71.68 109 -71 109 C-70.9175 108.21625 -70.835 107.4325 -70.75 106.625 C-69.75634931 101.822355 -67.91286482 97.50190511 -66 93 C-65.34 93 -64.68 93 -64 93 C-63.835 92.195625 -63.67 91.39125 -63.5 90.5625 C-61.34020885 85.43299601 -58.36527146 81.48208221 -54 78 C-51.42578125 77.40234375 -51.42578125 77.40234375 -48.8125 77.1875 C-46.26328876 77.04367182 -46.26328876 77.04367182 -44 76 C-41.61329415 72.21437484 -40.24434537 68.28316774 -39 64 C-38.34 64 -37.68 64 -37 64 C-36.87882812 63.40832031 -36.75765625 62.81664062 -36.6328125 62.20703125 C-35.73255357 57.96196415 -34.79543379 53.97560339 -33 50 C-32.34 50 -31.68 50 -31 50 C-30.85304688 49.1646875 -30.85304688 49.1646875 -30.703125 48.3125 C-30.55359375 47.549375 -30.4040625 46.78625 -30.25 46 C-30.11078125 45.2575 -29.9715625 44.515 -29.828125 43.75 C-29 41 -29 41 -27.140625 37.4765625 C-23.82766261 31.06428016 -22.41973253 23.97833567 -20.64453125 17.0234375 C-17.25391152 4.25875146 -17.25391152 4.25875146 -12.05859375 0.65234375 C-8.04253249 -0.62029805 -4.14641473 -0.63009243 0 0 Z M-3 43 C-4.4606285 45.64738916 -5 46.89448334 -5 50 C-5.66 50 -6.32 50 -7 50 C-7.16081055 50.53367187 -7.32162109 51.06734375 -7.48730469 51.6171875 C-8.23416132 54.08042935 -8.99200597 56.5401636 -9.75 59 C-10.12898438 60.25876953 -10.12898438 60.25876953 -10.515625 61.54296875 C-12.21530186 67.02442663 -14.38084967 71.89835065 -17 77 C-17 77.66 -17 78.32 -17 79 C-17.66 79 -18.32 79 -19 79 C-19.23074219 79.51949219 -19.46148437 80.03898437 -19.69921875 80.57421875 C-21.88512874 85.24843734 -24.15724956 88.46062459 -28 92 C-28.66 92.99 -29.32 93.98 -30 95 C-31.91796875 95.23046875 -31.91796875 95.23046875 -34.1875 95.1875 C-38.33070433 95.5144195 -40.09677307 96.53873938 -42.875 99.625 C-45.63900414 103.19782563 -47.45113419 106.74061903 -49 111 C-49.47695313 112.03511719 -49.95390625 113.07023437 -50.4453125 114.13671875 C-52.27736781 118.38850152 -53.21132652 122.72548894 -54.125 127.25 C-54.29386719 128.03246094 -54.46273437 128.81492187 -54.63671875 129.62109375 C-57.07270908 141.37906284 -57.2744353 153.22317214 -57.3125 165.1875 C-57.31511841 165.9766983 -57.31773682 166.76589661 -57.32043457 167.57901001 C-57.32742824 187.33987929 -57.13330889 210.57075675 -42.4375 225.625 C-41.633125 226.40875 -40.82875 227.1925 -40 228 C-39.57847656 228.68578125 -39.15695313 229.3715625 -38.72265625 230.078125 C-36.34156172 232.73458421 -34.49429701 232.72247069 -31 233.125 C-25.28251121 233.81165919 -25.28251121 233.81165919 -22 236 C-19.68566325 236.54647822 -19.68566325 236.54647822 -17.11328125 236.8515625 C-16.17548828 236.98046875 -15.23769531 237.109375 -14.27148438 237.2421875 C-13.29501953 237.36851562 -12.31855469 237.49484375 -11.3125 237.625 C-10.32443359 237.7590625 -9.33636719 237.893125 -8.31835938 238.03125 C-5.87975003 238.3611102 -3.44040404 238.68373935 -1 239 C-1 239.66 -1 240.32 -1 241 C-0.39526855 241.14099121 0.20946289 241.28198242 0.83251953 241.42724609 C3.59736745 242.0735948 6.3611825 242.7242599 9.125 243.375 C10.07632813 243.59671875 11.02765625 243.8184375 12.0078125 244.046875 C19.4514176 245.80439287 19.4514176 245.80439287 22.9140625 247.0390625 C27.91965881 248.59776717 33.07254577 249.23121519 38.25 250 C39.39919922 250.17442627 40.54839844 250.34885254 41.73242188 250.52856445 C49.38522609 251.66976274 57.04141544 252.6599398 64.74316406 253.40429688 C69.8085681 253.90428405 69.8085681 253.90428405 72 255 C73.340759 255.20986786 74.68912823 255.37229447 76.03930664 255.5090332 C76.88407059 255.59628662 77.72883453 255.68354004 78.59919739 255.7734375 C79.99062202 255.91072266 79.99062202 255.91072266 81.41015625 256.05078125 C82.38260788 256.14963623 83.35505951 256.24849121 84.35697937 256.3503418 C94.59310499 257.38347884 104.83465426 258.36310412 115.07666016 259.3359375 C119.44244579 259.75163296 123.80656432 260.17976066 128.16943359 260.625 C153.35822606 263.18737634 178.38089116 264.37153537 203.6875 264.375 C205.64749939 264.37785507 205.64749939 264.37785507 207.64709473 264.38076782 C221.94128062 264.37839802 236.03886067 263.941594 250.25854492 262.46777344 C256.43661252 261.83016256 262.60425168 261.60097989 268.8125 261.4375 C270.94413404 261.3779713 273.07566092 261.31441549 275.20703125 261.24609375 C276.1091333 261.22216553 277.01123535 261.1982373 277.94067383 261.17358398 C279.99131478 261.22375705 279.99131478 261.22375705 281 260 C283.05249259 259.72250285 285.11339374 259.50690104 287.17578125 259.31640625 C288.46991943 259.19450928 289.76405762 259.0726123 291.09741211 258.94702148 C291.78592255 258.88425018 292.47443298 258.82147888 293.18380737 258.75680542 C295.31380832 258.56238058 297.44319835 258.36222725 299.57250977 258.16040039 C304.81352675 257.66468777 310.05534205 257.17793879 315.29785156 256.69824219 C318.01153717 256.44940473 320.72452763 256.19397124 323.4375 255.9375 C324.20296143 255.87054932 324.96842285 255.80359863 325.75708008 255.73461914 C329.97179113 255.3332406 333.88518618 254.56338957 337.97387695 253.47924805 C341.56849614 252.62899652 345.20297161 252.2866066 348.875 251.9375 C349.7112793 251.85516113 350.54755859 251.77282227 351.40917969 251.68798828 C362.90972169 250.6347105 374.46027019 250.33491901 386 250 C388.2013866 246.19572508 388.2013866 246.19572508 389 242 C389.66 242 390.32 242 391 242 C391.67354499 240.56570999 392.33859701 239.12742943 393 237.6875 C393.37125 236.88699219 393.7425 236.08648437 394.125 235.26171875 C395.18040667 232.93786041 395.18040667 232.93786041 395 230 C395.66 230 396.32 230 397 230 C402.8228947 202.66631467 410.51692761 164.63051723 397.1171875 138.40234375 C395.5386402 135.00791511 394.41189829 131.49256194 393.25 127.9375 C393.02715332 127.25671387 392.80430664 126.57592773 392.57470703 125.87451172 C392.04621415 124.25083878 391.52258558 122.62558384 391 121 C390.34 121 389.68 121 389 121 C387.66666667 118.33333333 386.33333333 115.66666667 385 113 C384.34 113 383.68 113 383 113 C382.9690625 112.13375 382.9690625 112.13375 382.9375 111.25 C381.6698293 108.20759031 379.72843693 107.65000441 376.7890625 106.41796875 C373.55589741 103.85543834 372.23788461 99.90845552 371.73883057 95.90473938 C371.65512212 93.59852669 371.66209781 91.31117634 371.70703125 89.00390625 C371.71127609 88.17036118 371.71552094 87.3368161 371.71989441 86.47801208 C371.73656686 83.83916689 371.77419642 81.20111084 371.8125 78.5625 C371.82756167 76.76368297 371.84124747 74.96485387 371.85351562 73.16601562 C371.88643272 68.77704385 371.93813433 64.38865531 372 60 C371.01 60 370.02 60 369 60 C367.62464661 61.97133986 366.29788956 63.97681922 365 66 C363.37550757 67.70779973 361.70779973 69.37550757 360 71 C356.471134 74.27493757 356.471134 74.27493757 353.875 78.25 C353.58625 78.8275 353.2975 79.405 353 80 C351.515 80.495 351.515 80.495 350 81 C348.41284209 82.71164088 346.90010614 84.49327819 345.4375 86.3125 C344.25994141 87.76076172 344.25994141 87.76076172 343.05859375 89.23828125 C340.96680434 91.79397317 340.96680434 91.79397317 340.09765625 94.28125 C339 96 339 96 336.25 96.79296875 C335.1775 96.92316406 334.105 97.05335937 333 97.1875 C328.85746144 97.62334592 328.85746144 97.62334592 325 99 C319.89261338 99.47510573 316.62333083 98.0548137 312 96 C310.68 96 309.36 96 308 96 C308 95.34 308 94.68 308 94 C307.21874756 93.85900879 306.43749512 93.71801758 305.63256836 93.57275391 C302.0668763 92.92713813 298.50219114 92.27611855 294.9375 91.625 C293.09381836 91.29242188 293.09381836 91.29242188 291.21289062 90.953125 C281.78111403 89.22438967 281.78111403 89.22438967 277.41015625 87.96875 C272.18539035 86.48450952 266.85983223 85.7212893 261.5 84.875 C260.39785156 84.69324219 259.29570312 84.51148438 258.16015625 84.32421875 C252.71008816 83.45403981 247.51992923 82.76207202 242 83 C242 82.34 242 81.68 242 81 C241.37803741 80.92705215 240.75607483 80.85410431 240.11526489 80.77894592 C233.65882605 80.02094949 227.20301908 79.25773807 220.74755859 78.49145508 C218.33625944 78.20592788 215.92480085 77.92174391 213.51318359 77.63891602 C210.05263444 77.23283842 206.59268198 76.82197952 203.1328125 76.41015625 C201.50776291 76.22103416 201.50776291 76.22103416 199.84988403 76.02809143 C198.8489975 75.90804245 197.84811096 75.78799347 196.81689453 75.66430664 C195.93309113 75.5599379 195.04928772 75.45556915 194.13870239 75.34803772 C192 75 192 75 190 74 C168.25583037 70.51173593 145.97683244 70.66871433 124.0169754 70.63029861 C121.89252222 70.62504334 119.76816163 70.61418389 117.64373779 70.60202026 C95.61551504 70.49086537 76.18940015 71.59737156 56 81 C56 81.66 56 82.32 56 83 C55.20335937 82.89300781 54.40671875 82.78601563 53.5859375 82.67578125 C52.52632813 82.55589844 51.46671875 82.43601563 50.375 82.3125 C49.33085937 82.18488281 48.28671875 82.05726562 47.2109375 81.92578125 C43.93447228 81.77318839 43.93447228 81.77318839 41.078125 83.4609375 C37.29426244 85.35286878 34.58385629 85.36732478 30.375 85.3125 C29.08335937 85.30863281 27.79171875 85.30476563 26.4609375 85.30078125 C23.30545226 85.02654608 21.58116719 84.75150631 19 83 C17.98758315 81.67607028 16.98560611 80.34400833 16 79 C15.34 79 14.68 79 14 79 C13.7525 78.21625 13.505 77.4325 13.25 76.625 C11.66068507 72.01598671 9.83792827 67.51452284 8 63 C7.34 63 6.68 63 6 63 C5.79375 61.741875 5.5875 60.48375 5.375 59.1875 C4.07741439 53.19570763 1.10697591 48.22714501 -2 43 C-2.33 43 -2.66 43 -3 43 Z " fill="#040404" transform="translate(99,24)"/>
<path d="M0 0 C4.74074349 2.04713923 8.81429957 5.61218807 11.12890625 10.2734375 C13.90844034 18.97350385 12.48683269 29.92271659 8.5 38.0625 C8.005 38.701875 7.51 39.34125 7 40 C6.34 40 5.68 40 5 40 C5 40.66 5 41.32 5 42 C0.85546646 45.96570849 -3.13998008 48.706999 -9 49 C-9 49.66 -9 50.32 -9 51 C-15.41463419 52.89643484 -21.26582591 53.33533256 -27.9375 53.3125 C-28.87529297 53.32861328 -29.81308594 53.34472656 -30.77929688 53.36132812 C-38.41358372 53.3666334 -44.53157768 51.86761202 -51.25 48.25 C-54.49057019 46.77701355 -55.67301996 46.89100665 -59 48 C-59.86625 48.350625 -60.7325 48.70125 -61.625 49.0625 C-64 50 -64 50 -67 50 C-67 50.66 -67 51.32 -67 52 C-75.63174884 54.87724961 -86.98861521 55.71100324 -95.75 52.8125 C-99.62606854 50.65084639 -102.18378798 48.52584531 -103.578125 44.2109375 C-105.39112768 34.7094605 -104.11147736 24.74548361 -100 16 C-99.01 15.67 -98.02 15.34 -97 15 C-96.30341637 13.34561387 -95.63903117 11.67745682 -95 10 C-91.42344145 5.99467274 -86.96676933 2.62692131 -81.65234375 1.50390625 C-77.53643475 1.27715333 -75.4737449 1.70028384 -71.9375 3.9375 C-69.37115552 7.99397998 -69.20296368 11.31007049 -70 16 C-71.17652922 18.94132304 -71.65048807 19.79387758 -74.4375 21.4375 C-77.98913253 23.60312959 -79.5098826 26.16868297 -80.578125 30.16015625 C-80.71734375 30.76730469 -80.8565625 31.37445313 -81 32 C-71.41012478 28.78326313 -71.41012478 28.78326313 -64.875 21.4375 C-62.15409836 16.44918033 -62.15409836 16.44918033 -59 15 C-54.25553656 14.46516958 -51.04473101 14.30351266 -47 17 C-47 17.66 -47 18.32 -47 19 C-46.01 19.33 -45.02 19.66 -44 20 C-42.5 22.5 -42.5 22.5 -41 25 C-31.89514786 28.03495071 -20.92444027 25.97481342 -12 23 C-12 22.34 -12 21.68 -12 21 C-13.485 20.505 -13.485 20.505 -15 20 C-17.67873341 16.47535077 -17.53947271 12.23148906 -17 8 C-13.755225 0.31500657 -7.68372764 -1.02356226 0 0 Z " fill="#040404" transform="translate(324,200)"/>
<path d="M0 0 C2.9375 1.4375 2.9375 1.4375 5 4 C6.27458675 8.2433447 6.54735305 11.70363751 4.8125 15.8125 C-0.75174825 22.52797203 -0.75174825 22.52797203 -5 23 C-12.31047266 23.45968489 -12.31047266 23.45968489 -16 21 C-16 20.34 -16 19.68 -16 19 C-16.66 19 -17.32 19 -18 19 C-19.6122851 15.77542981 -19.59125774 12.48707687 -19 9 C-16.875 6.25 -16.875 6.25 -14 4 C-13.071875 3.236875 -12.14375 2.47375 -11.1875 1.6875 C-6.91151365 -0.57625748 -4.80400928 -0.61003292 0 0 Z " fill="#0A0A0A" transform="translate(117,178)"/>
<path d="M0 0 C2.8100346 1.79363911 4.50940468 3.01880935 6 6 C6.60014069 11.77058356 6.10359396 15.95665982 3 21 C2.01 21 1.02 21 0 21 C0 21.66 0 22.32 0 23 C-2.90295805 24.45147903 -4.77261779 24.37239025 -8 24 C-11.43229611 21.94696376 -13.70955241 19.87134276 -15 16 C-15.41873961 11.69986636 -15.4550224 8.06930264 -13.75 4.0625 C-10.02460831 -0.3281402 -5.61490277 -0.93581713 0 0 Z " fill="#090909" transform="translate(441,189)"/>
<path d="M0 0 C0.99 0 1.98 0 3 0 C3 13.2 3 26.4 3 40 C2.34 39.67 1.68 39.34 1 39 C0.505 21.675 0.505 21.675 0 4 C-0.99 4 -1.98 4 -3 4 C-1.6875 2 -1.6875 2 0 0 Z " fill="#A2A2A2" transform="translate(468,84)"/>
<path d="M0 0 C-1.04739235 2.44391548 -1.91194378 3.92330587 -3.9375 5.6875 C-6.903169 9.01264403 -7.8059223 12.7664518 -9 17 C-10.44839346 12.52759588 -9.05234254 10.17798303 -7 6 C-3.73913043 0 -3.73913043 0 0 0 Z " fill="#545454" transform="translate(89,25)"/>
<path d="M0 0 C0.66 0.33 1.32 0.66 2 1 C-0.97 3.97 -3.94 6.94 -7 10 C-7.66 9.67 -8.32 9.34 -9 9 C-7.87895467 7.68412059 -6.75303035 6.37239647 -5.625 5.0625 C-4.99851562 4.33160156 -4.37203125 3.60070312 -3.7265625 2.84765625 C-2 1 -2 1 0 0 Z " fill="#272726" transform="translate(47,101)"/>
</svg>